<mxfile modified="2024-02-20T11:55:30.985Z" host="app.diagrams.net" agent="Mozilla/5.0 (Macintosh; Intel Mac OS X 10_15_7) AppleWebKit/537.36 (KHTML, like Gecko) Chrome/121.0.0.0 Safari/537.36" etag="_RB-8LpersH0GA19Du1H" version="23.1.5" type="github">
  <diagram id="Ht1M8jgEwFfnCIfOTk4-" name="Page-1">
    <mxGraphModel dx="2603" dy="786" grid="1" gridSize="10" guides="1" tooltips="1" connect="1" arrows="1" fold="1" page="1" pageScale="1" pageWidth="1169" pageHeight="827" math="0" shadow="0">
      <root>
        <mxCell id="0" />
        <mxCell id="1" parent="0" />
        <mxCell id="UEzPUAAOIrF-is8g5C7q-74" value="AWS Cloud" style="points=[[0,0],[0.25,0],[0.5,0],[0.75,0],[1,0],[1,0.25],[1,0.5],[1,0.75],[1,1],[0.75,1],[0.5,1],[0.25,1],[0,1],[0,0.75],[0,0.5],[0,0.25]];outlineConnect=0;gradientColor=none;html=1;whiteSpace=wrap;fontSize=12;fontStyle=0;shape=mxgraph.aws4.group;grIcon=mxgraph.aws4.group_aws_cloud_alt;strokeColor=#232F3E;fillColor=none;verticalAlign=top;align=left;spacingLeft=30;fontColor=#232F3E;dashed=0;labelBackgroundColor=#ffffff;container=0;pointerEvents=0;collapsible=0;recursiveResize=0;" parent="1" vertex="1">
          <mxGeometry x="50" y="110" width="840" height="510" as="geometry" />
        </mxCell>
        <mxCell id="u6TNFnvrQqwYWDiAHOTU-6" value="" style="image;aspect=fixed;html=1;points=[];align=center;fontSize=12;image=img/lib/azure2/other/Connected_Vehicle_Platform.svg;sketch=1;hachureGap=4;jiggle=2;curveFitting=1;" vertex="1" parent="1">
          <mxGeometry x="-71" y="220" width="68" height="52" as="geometry" />
        </mxCell>
        <mxCell id="u6TNFnvrQqwYWDiAHOTU-66" value="" style="rounded=0;whiteSpace=wrap;html=1;labelBackgroundColor=none;fillColor=none;dashed=1;container=0;pointerEvents=0;collapsible=0;recursiveResize=0;" vertex="1" parent="1">
          <mxGeometry x="680" y="200" width="190" height="372" as="geometry" />
        </mxCell>
        <mxCell id="u6TNFnvrQqwYWDiAHOTU-84" value="Aws &lt;br&gt;Sagemaker" style="text;html=1;align=center;verticalAlign=middle;resizable=0;points=[];autosize=1;strokeColor=none;fillColor=none;container=0;" vertex="1" parent="1">
          <mxGeometry x="479" y="494" width="80" height="40" as="geometry" />
        </mxCell>
        <mxCell id="u6TNFnvrQqwYWDiAHOTU-104" value="CDN" style="text;html=1;align=center;verticalAlign=middle;resizable=0;points=[];autosize=1;strokeColor=none;fillColor=none;container=0;" vertex="1" parent="1">
          <mxGeometry x="805" y="308" width="50" height="30" as="geometry" />
        </mxCell>
        <mxCell id="u6TNFnvrQqwYWDiAHOTU-105" value="AWS&lt;br&gt;Fargate" style="text;html=1;align=center;verticalAlign=middle;resizable=0;points=[];autosize=1;strokeColor=none;fillColor=none;container=0;" vertex="1" parent="1">
          <mxGeometry x="790" y="515" width="60" height="40" as="geometry" />
        </mxCell>
        <mxCell id="u6TNFnvrQqwYWDiAHOTU-106" value="AWS ECS" style="text;html=1;align=center;verticalAlign=middle;resizable=0;points=[];autosize=1;strokeColor=none;fillColor=none;container=0;" vertex="1" parent="1">
          <mxGeometry x="682" y="513" width="80" height="30" as="geometry" />
        </mxCell>
        <mxCell id="u6TNFnvrQqwYWDiAHOTU-133" value="" style="image;aspect=fixed;html=1;points=[];align=center;fontSize=12;image=img/lib/azure2/management_governance/My_Customers.svg;sketch=1;hachureGap=4;jiggle=2;curveFitting=1;container=0;" vertex="1" parent="1">
          <mxGeometry x="920" y="273" width="69" height="56.00000000000001" as="geometry" />
        </mxCell>
        <mxCell id="u6TNFnvrQqwYWDiAHOTU-136" value="Customers" style="text;html=1;align=center;verticalAlign=middle;resizable=0;points=[];autosize=1;strokeColor=none;fillColor=none;container=0;" vertex="1" parent="1">
          <mxGeometry x="914.5" y="329" width="80" height="30" as="geometry" />
        </mxCell>
        <mxCell id="u6TNFnvrQqwYWDiAHOTU-137" style="edgeStyle=orthogonalEdgeStyle;rounded=0;sketch=1;hachureGap=4;jiggle=2;curveFitting=1;orthogonalLoop=1;jettySize=auto;html=1;entryX=0.956;entryY=0.625;entryDx=0;entryDy=0;entryPerimeter=0;" edge="1" parent="1" source="u6TNFnvrQqwYWDiAHOTU-133" target="u6TNFnvrQqwYWDiAHOTU-82">
          <mxGeometry relative="1" as="geometry" />
        </mxCell>
        <mxCell id="u6TNFnvrQqwYWDiAHOTU-7" value="" style="rounded=0;whiteSpace=wrap;html=1;labelBackgroundColor=none;fillColor=none;dashed=1;container=0;pointerEvents=0;collapsible=0;recursiveResize=0;" vertex="1" parent="1">
          <mxGeometry x="90" y="200" width="180" height="370" as="geometry" />
        </mxCell>
        <mxCell id="UEzPUAAOIrF-is8g5C7q-107" value="" style="rounded=0;whiteSpace=wrap;html=1;labelBackgroundColor=none;fillColor=none;dashed=1;container=0;pointerEvents=0;collapsible=0;recursiveResize=0;" parent="1" vertex="1">
          <mxGeometry x="280" y="200" width="190" height="370" as="geometry" />
        </mxCell>
        <mxCell id="u6TNFnvrQqwYWDiAHOTU-16" style="edgeStyle=orthogonalEdgeStyle;rounded=0;sketch=1;hachureGap=4;jiggle=2;curveFitting=1;orthogonalLoop=1;jettySize=auto;html=1;exitX=0.5;exitY=1;exitDx=0;exitDy=0;" edge="1" parent="1" source="UEzPUAAOIrF-is8g5C7q-107" target="UEzPUAAOIrF-is8g5C7q-107">
          <mxGeometry relative="1" as="geometry" />
        </mxCell>
        <mxCell id="u6TNFnvrQqwYWDiAHOTU-30" value="" style="rounded=0;whiteSpace=wrap;html=1;labelBackgroundColor=none;fillColor=none;dashed=1;container=0;pointerEvents=0;collapsible=0;recursiveResize=0;" vertex="1" parent="1">
          <mxGeometry x="480" y="200" width="190" height="370" as="geometry" />
        </mxCell>
        <mxCell id="u6TNFnvrQqwYWDiAHOTU-69" style="edgeStyle=orthogonalEdgeStyle;rounded=0;sketch=1;hachureGap=4;jiggle=2;curveFitting=1;orthogonalLoop=1;jettySize=auto;html=1;entryX=0;entryY=0.5;entryDx=0;entryDy=0;entryPerimeter=0;" edge="1" parent="1" source="UEzPUAAOIrF-is8g5C7q-77" target="u6TNFnvrQqwYWDiAHOTU-5">
          <mxGeometry relative="1" as="geometry" />
        </mxCell>
        <mxCell id="u6TNFnvrQqwYWDiAHOTU-122" style="edgeStyle=orthogonalEdgeStyle;rounded=0;sketch=1;hachureGap=4;jiggle=2;curveFitting=1;orthogonalLoop=1;jettySize=auto;html=1;entryX=0;entryY=0.333;entryDx=0;entryDy=0;entryPerimeter=0;" edge="1" parent="1" source="u6TNFnvrQqwYWDiAHOTU-18" target="u6TNFnvrQqwYWDiAHOTU-120">
          <mxGeometry relative="1" as="geometry" />
        </mxCell>
        <mxCell id="u6TNFnvrQqwYWDiAHOTU-138" value="" style="shape=flexArrow;endArrow=classic;html=1;rounded=0;sketch=1;hachureGap=4;jiggle=2;curveFitting=1;entryX=-0.033;entryY=0.162;entryDx=0;entryDy=0;entryPerimeter=0;" edge="1" parent="1">
          <mxGeometry width="50" height="50" relative="1" as="geometry">
            <mxPoint x="11" y="260" as="sourcePoint" />
            <mxPoint x="85.05999999999995" y="259.94000000000005" as="targetPoint" />
          </mxGeometry>
        </mxCell>
        <mxCell id="u6TNFnvrQqwYWDiAHOTU-14" style="edgeStyle=orthogonalEdgeStyle;rounded=0;sketch=1;hachureGap=4;jiggle=2;curveFitting=1;orthogonalLoop=1;jettySize=auto;html=1;" edge="1" parent="1" source="UEzPUAAOIrF-is8g5C7q-86" target="UEzPUAAOIrF-is8g5C7q-85">
          <mxGeometry relative="1" as="geometry" />
        </mxCell>
        <mxCell id="UEzPUAAOIrF-is8g5C7q-86" value="Amazon Kinesis&lt;br&gt;Data&amp;nbsp;Firehose" style="outlineConnect=0;fontColor=#232F3E;gradientColor=#945DF2;gradientDirection=north;fillColor=#5A30B5;strokeColor=#ffffff;dashed=0;verticalLabelPosition=bottom;verticalAlign=top;align=center;html=1;fontSize=12;fontStyle=0;aspect=fixed;shape=mxgraph.aws4.resourceIcon;resIcon=mxgraph.aws4.kinesis_data_firehose;labelBackgroundColor=#ffffff;container=0;" parent="1" vertex="1">
          <mxGeometry x="100" y="230" width="78" height="78" as="geometry" />
        </mxCell>
        <mxCell id="u6TNFnvrQqwYWDiAHOTU-15" style="edgeStyle=orthogonalEdgeStyle;rounded=0;sketch=1;hachureGap=4;jiggle=2;curveFitting=1;orthogonalLoop=1;jettySize=auto;html=1;" edge="1" parent="1" source="UEzPUAAOIrF-is8g5C7q-85" target="UEzPUAAOIrF-is8g5C7q-77">
          <mxGeometry relative="1" as="geometry" />
        </mxCell>
        <mxCell id="UEzPUAAOIrF-is8g5C7q-85" value="AWS Lambda" style="outlineConnect=0;fontColor=#232F3E;gradientColor=#F78E04;gradientDirection=north;fillColor=#D05C17;strokeColor=#ffffff;dashed=0;verticalLabelPosition=bottom;verticalAlign=top;align=center;html=1;fontSize=12;fontStyle=0;aspect=fixed;shape=mxgraph.aws4.resourceIcon;resIcon=mxgraph.aws4.lambda;labelBackgroundColor=#ffffff;spacingTop=6;container=0;" parent="1" vertex="1">
          <mxGeometry x="200" y="340" width="58" height="58" as="geometry" />
        </mxCell>
        <mxCell id="UEzPUAAOIrF-is8g5C7q-77" value="Raw s3 &lt;br&gt;Bucket" style="outlineConnect=0;fontColor=#232F3E;gradientColor=none;fillColor=#277116;strokeColor=none;dashed=0;verticalLabelPosition=bottom;verticalAlign=top;align=center;html=1;fontSize=12;fontStyle=0;aspect=fixed;pointerEvents=1;shape=mxgraph.aws4.bucket_with_objects;labelBackgroundColor=#ffffff;container=0;" parent="1" vertex="1">
          <mxGeometry x="111.11" y="450" width="55.77" height="58" as="geometry" />
        </mxCell>
        <mxCell id="u6TNFnvrQqwYWDiAHOTU-47" style="edgeStyle=orthogonalEdgeStyle;rounded=0;sketch=1;hachureGap=4;jiggle=2;curveFitting=1;orthogonalLoop=1;jettySize=auto;html=1;" edge="1" parent="1">
          <mxGeometry relative="1" as="geometry">
            <mxPoint x="322" y="440" as="sourcePoint" />
            <mxPoint x="322" y="300" as="targetPoint" />
            <Array as="points">
              <mxPoint x="322" y="410" />
              <mxPoint x="322" y="410" />
            </Array>
          </mxGeometry>
        </mxCell>
        <mxCell id="u6TNFnvrQqwYWDiAHOTU-5" value="" style="sketch=0;points=[[0,0,0],[0.25,0,0],[0.5,0,0],[0.75,0,0],[1,0,0],[0,1,0],[0.25,1,0],[0.5,1,0],[0.75,1,0],[1,1,0],[0,0.25,0],[0,0.5,0],[0,0.75,0],[1,0.25,0],[1,0.5,0],[1,0.75,0]];outlineConnect=0;fontColor=#232F3E;fillColor=#E7157B;strokeColor=#ffffff;dashed=0;verticalLabelPosition=bottom;verticalAlign=top;align=center;html=1;fontSize=12;fontStyle=0;aspect=fixed;shape=mxgraph.aws4.resourceIcon;resIcon=mxgraph.aws4.managed_workflows_for_apache_airflow;hachureGap=4;jiggle=2;curveFitting=1;container=0;" vertex="1" parent="1">
          <mxGeometry x="295" y="440" width="78" height="78" as="geometry" />
        </mxCell>
        <mxCell id="u6TNFnvrQqwYWDiAHOTU-73" style="edgeStyle=orthogonalEdgeStyle;rounded=0;sketch=1;hachureGap=4;jiggle=2;curveFitting=1;orthogonalLoop=1;jettySize=auto;html=1;" edge="1" parent="1" source="u6TNFnvrQqwYWDiAHOTU-17" target="u6TNFnvrQqwYWDiAHOTU-18">
          <mxGeometry relative="1" as="geometry">
            <Array as="points">
              <mxPoint x="420" y="430" />
              <mxPoint x="420" y="430" />
            </Array>
          </mxGeometry>
        </mxCell>
        <mxCell id="u6TNFnvrQqwYWDiAHOTU-17" value="Transform s3 &lt;br&gt;Bucket" style="outlineConnect=0;fontColor=#232F3E;gradientColor=none;fillColor=#277116;strokeColor=none;dashed=0;verticalLabelPosition=bottom;verticalAlign=top;align=center;html=1;fontSize=12;fontStyle=0;aspect=fixed;pointerEvents=1;shape=mxgraph.aws4.bucket_with_objects;labelBackgroundColor=#ffffff;container=0;" vertex="1" parent="1">
          <mxGeometry x="402" y="444" width="55.77" height="58" as="geometry" />
        </mxCell>
        <mxCell id="u6TNFnvrQqwYWDiAHOTU-18" value="" style="outlineConnect=0;fontColor=#232F3E;gradientColor=#F78E04;gradientDirection=north;fillColor=#D05C17;strokeColor=#ffffff;dashed=0;verticalLabelPosition=bottom;verticalAlign=top;align=center;html=1;fontSize=12;fontStyle=0;aspect=fixed;shape=mxgraph.aws4.resourceIcon;resIcon=mxgraph.aws4.lambda;labelBackgroundColor=#ffffff;spacingTop=6;container=0;" vertex="1" parent="1">
          <mxGeometry x="390" y="330" width="60" height="60" as="geometry" />
        </mxCell>
        <mxCell id="u6TNFnvrQqwYWDiAHOTU-53" value="" style="edgeStyle=orthogonalEdgeStyle;rounded=0;sketch=1;hachureGap=4;jiggle=2;curveFitting=1;orthogonalLoop=1;jettySize=auto;html=1;" edge="1" parent="1" source="u6TNFnvrQqwYWDiAHOTU-19" target="u6TNFnvrQqwYWDiAHOTU-18">
          <mxGeometry relative="1" as="geometry">
            <Array as="points">
              <mxPoint x="410" y="250" />
            </Array>
          </mxGeometry>
        </mxCell>
        <mxCell id="u6TNFnvrQqwYWDiAHOTU-19" value="" style="outlineConnect=0;fontColor=#232F3E;gradientColor=#945DF2;gradientDirection=north;fillColor=#5A30B5;strokeColor=#ffffff;dashed=0;verticalLabelPosition=bottom;verticalAlign=top;align=center;html=1;fontSize=12;fontStyle=0;aspect=fixed;shape=mxgraph.aws4.resourceIcon;resIcon=mxgraph.aws4.kinesis_data_firehose;labelBackgroundColor=#ffffff;container=0;" vertex="1" parent="1">
          <mxGeometry x="290" y="224" width="70" height="70" as="geometry" />
        </mxCell>
        <mxCell id="u6TNFnvrQqwYWDiAHOTU-38" style="edgeStyle=orthogonalEdgeStyle;rounded=0;sketch=1;hachureGap=4;jiggle=2;curveFitting=1;orthogonalLoop=1;jettySize=auto;html=1;entryX=0.107;entryY=0.621;entryDx=0;entryDy=0;entryPerimeter=0;" edge="1" parent="1" source="u6TNFnvrQqwYWDiAHOTU-5" target="u6TNFnvrQqwYWDiAHOTU-17">
          <mxGeometry relative="1" as="geometry" />
        </mxCell>
        <mxCell id="u6TNFnvrQqwYWDiAHOTU-83" value="AWS Apache&lt;br&gt;Airflow" style="text;html=1;align=center;verticalAlign=middle;resizable=0;points=[];autosize=1;strokeColor=none;fillColor=none;container=0;" vertex="1" parent="1">
          <mxGeometry x="289" y="518" width="90" height="40" as="geometry" />
        </mxCell>
        <mxCell id="u6TNFnvrQqwYWDiAHOTU-39" value="" style="sketch=0;points=[[0,0,0],[0.25,0,0],[0.5,0,0],[0.75,0,0],[1,0,0],[0,1,0],[0.25,1,0],[0.5,1,0],[0.75,1,0],[1,1,0],[0,0.25,0],[0,0.5,0],[0,0.75,0],[1,0.25,0],[1,0.5,0],[1,0.75,0]];outlineConnect=0;fontColor=#232F3E;fillColor=#01A88D;strokeColor=#ffffff;dashed=0;verticalLabelPosition=bottom;verticalAlign=top;align=center;html=1;fontSize=12;fontStyle=0;aspect=fixed;shape=mxgraph.aws4.resourceIcon;resIcon=mxgraph.aws4.sagemaker;hachureGap=4;jiggle=2;curveFitting=1;container=0;" vertex="1" parent="1">
          <mxGeometry x="490" y="460" width="68" height="68" as="geometry" />
        </mxCell>
        <mxCell id="u6TNFnvrQqwYWDiAHOTU-120" value="" style="outlineConnect=0;fontColor=#232F3E;gradientColor=#F78E04;gradientDirection=north;fillColor=#D05C17;strokeColor=#ffffff;dashed=0;verticalLabelPosition=bottom;verticalAlign=top;align=center;html=1;fontSize=12;fontStyle=0;aspect=fixed;shape=mxgraph.aws4.resourceIcon;resIcon=mxgraph.aws4.lambda;labelBackgroundColor=#ffffff;spacingTop=6;container=0;" vertex="1" parent="1">
          <mxGeometry x="519" y="223" width="60" height="60" as="geometry" />
        </mxCell>
        <mxCell id="u6TNFnvrQqwYWDiAHOTU-128" style="edgeStyle=orthogonalEdgeStyle;rounded=0;sketch=1;hachureGap=4;jiggle=2;curveFitting=1;orthogonalLoop=1;jettySize=auto;html=1;entryX=0.5;entryY=0;entryDx=0;entryDy=0;entryPerimeter=0;" edge="1" parent="1" source="u6TNFnvrQqwYWDiAHOTU-120" target="u6TNFnvrQqwYWDiAHOTU-79">
          <mxGeometry relative="1" as="geometry">
            <Array as="points">
              <mxPoint x="540" y="430" />
              <mxPoint x="614" y="430" />
            </Array>
          </mxGeometry>
        </mxCell>
        <mxCell id="u6TNFnvrQqwYWDiAHOTU-130" style="edgeStyle=orthogonalEdgeStyle;rounded=0;sketch=1;hachureGap=4;jiggle=2;curveFitting=1;orthogonalLoop=1;jettySize=auto;html=1;entryX=0.5;entryY=0;entryDx=0;entryDy=0;entryPerimeter=0;" edge="1" parent="1" source="u6TNFnvrQqwYWDiAHOTU-120" target="u6TNFnvrQqwYWDiAHOTU-39">
          <mxGeometry relative="1" as="geometry">
            <Array as="points">
              <mxPoint x="524" y="330" />
              <mxPoint x="524" y="330" />
            </Array>
          </mxGeometry>
        </mxCell>
        <mxCell id="u6TNFnvrQqwYWDiAHOTU-79" value="" style="sketch=0;points=[[0,0,0],[0.25,0,0],[0.5,0,0],[0.75,0,0],[1,0,0],[0,1,0],[0.25,1,0],[0.5,1,0],[0.75,1,0],[1,1,0],[0,0.25,0],[0,0.5,0],[0,0.75,0],[1,0.25,0],[1,0.5,0],[1,0.75,0]];outlineConnect=0;fontColor=#232F3E;fillColor=#01A88D;strokeColor=#ffffff;dashed=0;verticalLabelPosition=bottom;verticalAlign=top;align=center;html=1;fontSize=12;fontStyle=0;aspect=fixed;shape=mxgraph.aws4.resourceIcon;resIcon=mxgraph.aws4.rekognition_2;hachureGap=4;jiggle=2;curveFitting=1;container=0;" vertex="1" parent="1">
          <mxGeometry x="580" y="462" width="68" height="68" as="geometry" />
        </mxCell>
        <mxCell id="u6TNFnvrQqwYWDiAHOTU-86" value="" style="sketch=0;points=[[0,0,0],[0.25,0,0],[0.5,0,0],[0.75,0,0],[1,0,0],[0,1,0],[0.25,1,0],[0.5,1,0],[0.75,1,0],[1,1,0],[0,0.25,0],[0,0.5,0],[0,0.75,0],[1,0.25,0],[1,0.5,0],[1,0.75,0]];outlineConnect=0;fontColor=#232F3E;fillColor=#C925D1;strokeColor=#ffffff;dashed=0;verticalLabelPosition=bottom;verticalAlign=top;align=center;html=1;fontSize=12;fontStyle=0;aspect=fixed;shape=mxgraph.aws4.resourceIcon;resIcon=mxgraph.aws4.dynamodb;hachureGap=4;jiggle=2;curveFitting=1;container=0;" vertex="1" parent="1">
          <mxGeometry x="592" y="281" width="68" height="68" as="geometry" />
        </mxCell>
        <mxCell id="u6TNFnvrQqwYWDiAHOTU-85" value="AWS &lt;br&gt;Rekognition" style="text;html=1;align=center;verticalAlign=middle;resizable=0;points=[];autosize=1;strokeColor=none;fillColor=none;container=0;" vertex="1" parent="1">
          <mxGeometry x="570" y="528" width="90" height="40" as="geometry" />
        </mxCell>
        <mxCell id="u6TNFnvrQqwYWDiAHOTU-102" value="Dynamo DB" style="text;html=1;align=center;verticalAlign=middle;resizable=0;points=[];autosize=1;strokeColor=none;fillColor=none;container=0;" vertex="1" parent="1">
          <mxGeometry x="582" y="345" width="90" height="30" as="geometry" />
        </mxCell>
        <mxCell id="u6TNFnvrQqwYWDiAHOTU-76" value="" style="sketch=0;points=[[0,0,0],[0.25,0,0],[0.5,0,0],[0.75,0,0],[1,0,0],[0,1,0],[0.25,1,0],[0.5,1,0],[0.75,1,0],[1,1,0],[0,0.25,0],[0,0.5,0],[0,0.75,0],[1,0.25,0],[1,0.5,0],[1,0.75,0]];outlineConnect=0;fontColor=#232F3E;fillColor=#ED7100;strokeColor=#ffffff;dashed=0;verticalLabelPosition=bottom;verticalAlign=top;align=center;html=1;fontSize=12;fontStyle=0;aspect=fixed;shape=mxgraph.aws4.resourceIcon;resIcon=mxgraph.aws4.fargate;hachureGap=4;jiggle=2;curveFitting=1;container=0;" vertex="1" parent="1">
          <mxGeometry x="794" y="462.5" width="53" height="53" as="geometry" />
        </mxCell>
        <mxCell id="u6TNFnvrQqwYWDiAHOTU-132" style="edgeStyle=orthogonalEdgeStyle;rounded=0;sketch=1;hachureGap=4;jiggle=2;curveFitting=1;orthogonalLoop=1;jettySize=auto;html=1;" edge="1" parent="1" source="u6TNFnvrQqwYWDiAHOTU-77" target="u6TNFnvrQqwYWDiAHOTU-93">
          <mxGeometry relative="1" as="geometry">
            <Array as="points">
              <mxPoint x="720" y="410" />
              <mxPoint x="720" y="410" />
            </Array>
          </mxGeometry>
        </mxCell>
        <mxCell id="u6TNFnvrQqwYWDiAHOTU-77" value="" style="sketch=0;points=[[0,0,0],[0.25,0,0],[0.5,0,0],[0.75,0,0],[1,0,0],[0,1,0],[0.25,1,0],[0.5,1,0],[0.75,1,0],[1,1,0],[0,0.25,0],[0,0.5,0],[0,0.75,0],[1,0.25,0],[1,0.5,0],[1,0.75,0]];outlineConnect=0;fontColor=#232F3E;fillColor=#ED7100;strokeColor=#ffffff;dashed=0;verticalLabelPosition=bottom;verticalAlign=top;align=center;html=1;fontSize=12;fontStyle=0;aspect=fixed;shape=mxgraph.aws4.resourceIcon;resIcon=mxgraph.aws4.ecr;hachureGap=4;jiggle=2;curveFitting=1;container=0;" vertex="1" parent="1">
          <mxGeometry x="704" y="386" width="48" height="48" as="geometry" />
        </mxCell>
        <mxCell id="u6TNFnvrQqwYWDiAHOTU-82" value="" style="image;aspect=fixed;html=1;points=[];align=center;fontSize=12;image=img/lib/azure2/app_services/CDN_Profiles.svg;sketch=1;hachureGap=4;jiggle=2;curveFitting=1;container=0;" vertex="1" parent="1">
          <mxGeometry x="790" y="274" width="68" height="40" as="geometry" />
        </mxCell>
        <mxCell id="u6TNFnvrQqwYWDiAHOTU-146" style="edgeStyle=orthogonalEdgeStyle;rounded=0;sketch=1;hachureGap=4;jiggle=2;curveFitting=1;orthogonalLoop=1;jettySize=auto;html=1;" edge="1" parent="1" source="u6TNFnvrQqwYWDiAHOTU-80" target="u6TNFnvrQqwYWDiAHOTU-82">
          <mxGeometry relative="1" as="geometry">
            <Array as="points">
              <mxPoint x="840" y="240" />
            </Array>
          </mxGeometry>
        </mxCell>
        <mxCell id="u6TNFnvrQqwYWDiAHOTU-80" value="" style="sketch=0;points=[[0,0,0],[0.25,0,0],[0.5,0,0],[0.75,0,0],[1,0,0],[0,1,0],[0.25,1,0],[0.5,1,0],[0.75,1,0],[1,1,0],[0,0.25,0],[0,0.5,0],[0,0.75,0],[1,0.25,0],[1,0.5,0],[1,0.75,0]];outlineConnect=0;fontColor=#232F3E;fillColor=#8C4FFF;strokeColor=#ffffff;dashed=0;verticalLabelPosition=bottom;verticalAlign=top;align=center;html=1;fontSize=12;fontStyle=0;aspect=fixed;shape=mxgraph.aws4.resourceIcon;resIcon=mxgraph.aws4.api_gateway;hachureGap=4;jiggle=2;curveFitting=1;container=0;" vertex="1" parent="1">
          <mxGeometry x="696" y="218" width="58" height="58" as="geometry" />
        </mxCell>
        <mxCell id="u6TNFnvrQqwYWDiAHOTU-93" value="" style="sketch=0;points=[[0,0,0],[0.25,0,0],[0.5,0,0],[0.75,0,0],[1,0,0],[0,1,0],[0.25,1,0],[0.5,1,0],[0.75,1,0],[1,1,0],[0,0.25,0],[0,0.5,0],[0,0.75,0],[1,0.25,0],[1,0.5,0],[1,0.75,0]];outlineConnect=0;fontColor=#232F3E;fillColor=#ED7100;strokeColor=#ffffff;dashed=0;verticalLabelPosition=bottom;verticalAlign=top;align=center;html=1;fontSize=12;fontStyle=0;aspect=fixed;shape=mxgraph.aws4.resourceIcon;resIcon=mxgraph.aws4.ecs;hachureGap=4;jiggle=2;curveFitting=1;container=0;" vertex="1" parent="1">
          <mxGeometry x="696" y="465" width="48" height="48" as="geometry" />
        </mxCell>
        <mxCell id="u6TNFnvrQqwYWDiAHOTU-101" style="edgeStyle=orthogonalEdgeStyle;rounded=0;sketch=1;hachureGap=4;jiggle=2;curveFitting=1;orthogonalLoop=1;jettySize=auto;html=1;entryX=0;entryY=0.5;entryDx=0;entryDy=0;entryPerimeter=0;" edge="1" parent="1" source="u6TNFnvrQqwYWDiAHOTU-93" target="u6TNFnvrQqwYWDiAHOTU-76">
          <mxGeometry relative="1" as="geometry" />
        </mxCell>
        <mxCell id="u6TNFnvrQqwYWDiAHOTU-103" value="API Gateway" style="text;html=1;align=center;verticalAlign=middle;resizable=0;points=[];autosize=1;strokeColor=none;fillColor=none;container=0;" vertex="1" parent="1">
          <mxGeometry x="681" y="274" width="90" height="30" as="geometry" />
        </mxCell>
        <mxCell id="u6TNFnvrQqwYWDiAHOTU-143" value="" style="edgeStyle=orthogonalEdgeStyle;rounded=0;sketch=1;hachureGap=4;jiggle=2;curveFitting=1;orthogonalLoop=1;jettySize=auto;html=1;" edge="1" parent="1" source="u6TNFnvrQqwYWDiAHOTU-107" target="u6TNFnvrQqwYWDiAHOTU-103">
          <mxGeometry relative="1" as="geometry" />
        </mxCell>
        <mxCell id="u6TNFnvrQqwYWDiAHOTU-107" value="AWS ECR" style="text;html=1;align=center;verticalAlign=middle;resizable=0;points=[];autosize=1;strokeColor=none;fillColor=none;container=0;" vertex="1" parent="1">
          <mxGeometry x="741" y="399" width="80" height="30" as="geometry" />
        </mxCell>
        <mxCell id="u6TNFnvrQqwYWDiAHOTU-108" value="" style="rounded=0;whiteSpace=wrap;html=1;labelBackgroundColor=none;fillColor=none;dashed=1;container=0;pointerEvents=0;collapsible=0;recursiveResize=0;" vertex="1" parent="1">
          <mxGeometry x="690" y="375" width="170" height="189" as="geometry" />
        </mxCell>
        <mxCell id="u6TNFnvrQqwYWDiAHOTU-147" style="edgeStyle=orthogonalEdgeStyle;rounded=0;sketch=1;hachureGap=4;jiggle=2;curveFitting=1;orthogonalLoop=1;jettySize=auto;html=1;entryX=0;entryY=0.5;entryDx=0;entryDy=0;entryPerimeter=0;" edge="1" parent="1" source="u6TNFnvrQqwYWDiAHOTU-86" target="u6TNFnvrQqwYWDiAHOTU-80">
          <mxGeometry relative="1" as="geometry">
            <Array as="points">
              <mxPoint x="620" y="247" />
            </Array>
          </mxGeometry>
        </mxCell>
        <mxCell id="u6TNFnvrQqwYWDiAHOTU-149" style="edgeStyle=orthogonalEdgeStyle;rounded=0;sketch=1;hachureGap=4;jiggle=2;curveFitting=1;orthogonalLoop=1;jettySize=auto;html=1;entryX=0;entryY=0.75;entryDx=0;entryDy=0;entryPerimeter=0;" edge="1" parent="1" source="u6TNFnvrQqwYWDiAHOTU-120" target="u6TNFnvrQqwYWDiAHOTU-86">
          <mxGeometry relative="1" as="geometry">
            <Array as="points">
              <mxPoint x="570" y="332" />
            </Array>
          </mxGeometry>
        </mxCell>
        <mxCell id="u6TNFnvrQqwYWDiAHOTU-151" style="edgeStyle=orthogonalEdgeStyle;rounded=0;sketch=1;hachureGap=4;jiggle=2;curveFitting=1;orthogonalLoop=1;jettySize=auto;html=1;entryX=0;entryY=0.5;entryDx=0;entryDy=0;entryPerimeter=0;" edge="1" parent="1" source="u6TNFnvrQqwYWDiAHOTU-120" target="u6TNFnvrQqwYWDiAHOTU-77">
          <mxGeometry relative="1" as="geometry">
            <Array as="points">
              <mxPoint x="560" y="410" />
            </Array>
          </mxGeometry>
        </mxCell>
        <mxCell id="u6TNFnvrQqwYWDiAHOTU-152" value="&lt;b&gt;&lt;font style=&quot;font-size: 14px;&quot;&gt;Ingest&lt;/font&gt;&lt;/b&gt;" style="text;html=1;align=center;verticalAlign=middle;resizable=0;points=[];autosize=1;strokeColor=none;fillColor=none;" vertex="1" parent="1">
          <mxGeometry x="160" y="172" width="60" height="30" as="geometry" />
        </mxCell>
        <mxCell id="u6TNFnvrQqwYWDiAHOTU-153" value="&lt;b&gt;&lt;font style=&quot;font-size: 14px;&quot;&gt;Decode &amp;amp; Transform&lt;/font&gt;&lt;/b&gt;" style="text;html=1;align=center;verticalAlign=middle;resizable=0;points=[];autosize=1;strokeColor=none;fillColor=none;" vertex="1" parent="1">
          <mxGeometry x="310" y="174" width="160" height="30" as="geometry" />
        </mxCell>
        <mxCell id="u6TNFnvrQqwYWDiAHOTU-154" value="&lt;b&gt;&lt;font style=&quot;font-size: 14px;&quot;&gt;Visualize&lt;/font&gt;&lt;/b&gt;" style="text;html=1;align=center;verticalAlign=middle;resizable=0;points=[];autosize=1;strokeColor=none;fillColor=none;" vertex="1" parent="1">
          <mxGeometry x="545" y="178" width="80" height="30" as="geometry" />
        </mxCell>
        <mxCell id="u6TNFnvrQqwYWDiAHOTU-155" value="" style="image;aspect=fixed;html=1;points=[];align=center;fontSize=12;image=img/lib/azure2/other/Connected_Vehicle_Platform.svg;sketch=1;hachureGap=4;jiggle=2;curveFitting=1;" vertex="1" parent="1">
          <mxGeometry x="-30" y="200" width="68" height="52" as="geometry" />
        </mxCell>
        <mxCell id="u6TNFnvrQqwYWDiAHOTU-156" value="&lt;b&gt;&lt;font style=&quot;font-size: 14px;&quot;&gt;Test&lt;/font&gt;&lt;/b&gt;" style="text;html=1;align=center;verticalAlign=middle;resizable=0;points=[];autosize=1;strokeColor=none;fillColor=none;" vertex="1" parent="1">
          <mxGeometry x="752" y="178" width="50" height="30" as="geometry" />
        </mxCell>
        <mxCell id="u6TNFnvrQqwYWDiAHOTU-157" value="Data &lt;br&gt;from connected &lt;br&gt;Vehicles&lt;div&gt;&lt;br&gt;&lt;/div&gt;" style="text;html=1;align=center;verticalAlign=middle;resizable=0;points=[];autosize=1;strokeColor=none;fillColor=none;" vertex="1" parent="1">
          <mxGeometry x="-100" y="160" width="110" height="70" as="geometry" />
        </mxCell>
      </root>
    </mxGraphModel>
  </diagram>
</mxfile>
